<?xml version="1.0" standalone="no"?>
<!DOCTYPE svg PUBLIC "-//W3C//DTD SVG 20010904//EN"
 "http://www.w3.org/TR/2001/REC-SVG-20010904/DTD/svg10.dtd">
<svg version="1.0" xmlns="http://www.w3.org/2000/svg"
 width="1283.000000pt" height="513.000000pt" viewBox="0 0 1283.000000 513.000000"
 preserveAspectRatio="xMidYMid meet">

<g transform="translate(0.000000,513.000000) scale(0.100000,-0.100000)"
fill="#000000" stroke="none">
<path d="M6567 4253 c-4 -3 -7 -14 -7 -24 0 -16 11 -19 83 -21 l82 -3 3 -1072
2 -1073 -85 0 c-84 0 -85 0 -85 -25 l0 -25 344 0 345 0 7 80 c3 44 9 80 13 80
3 0 14 -18 24 -39 25 -54 82 -107 136 -126 70 -25 239 -31 340 -11 288 54 435
249 460 606 22 319 -38 572 -172 716 -102 110 -206 149 -386 142 -104 -3 -123
-7 -181 -35 -74 -35 -128 -83 -173 -157 l-32 -51 -3 523 -2 522 -353 0 c-195
0 -357 -3 -360 -7z m991 -924 c76 -26 92 -107 99 -500 10 -533 -24 -728 -132
-758 -66 -18 -138 13 -183 79 -53 78 -57 116 -57 505 0 242 4 379 13 418 25
125 94 230 167 255 40 14 56 14 93 1z"/>
<path d="M4107 4185 c-108 -30 -171 -99 -190 -208 -20 -119 27 -239 115 -291
86 -50 250 -51 348 -1 93 47 136 135 128 261 -8 127 -68 205 -181 239 -61 18
-155 18 -220 0z"/>
<path d="M1693 3450 c-107 -25 -212 -114 -263 -223 l-30 -62 0 133 0 132 -360
0 -360 0 0 -25 c0 -25 1 -25 80 -25 l80 0 0 -660 0 -660 -80 0 c-79 0 -80 0
-80 -25 l0 -25 465 0 465 0 0 25 0 25 -105 0 -105 0 0 444 c0 495 4 535 64
662 39 82 91 145 140 168 48 23 108 21 141 -5 23 -19 26 -26 20 -58 -12 -64
-20 -71 -79 -71 -52 0 -54 -1 -60 -31 -32 -162 33 -274 174 -300 210 -37 349
114 311 337 -31 173 -131 255 -309 253 -42 -1 -92 -4 -109 -9z"/>
<path d="M2604 3445 c-182 -33 -295 -100 -348 -208 -21 -41 -26 -65 -26 -127
0 -86 12 -130 47 -178 96 -129 368 -99 443 49 23 44 27 155 9 208 -10 27 -15
31 -50 31 -36 0 -38 2 -45 36 -19 104 30 165 132 166 127 0 154 -81 154 -473
l0 -236 -177 -6 c-202 -6 -306 -24 -406 -69 -137 -63 -194 -162 -185 -324 12
-232 176 -348 469 -331 151 8 238 57 293 165 l23 45 22 -47 c50 -103 159 -155
346 -163 281 -14 397 91 422 382 6 71 5 75 -15 75 -18 0 -22 -8 -27 -57 -23
-195 -70 -274 -145 -243 -17 7 -36 22 -43 34 -9 15 -14 143 -18 456 -4 308 -9
451 -18 490 -46 190 -150 287 -350 324 -103 20 -403 20 -507 1z m316 -962 c0
-226 -15 -296 -73 -360 -26 -29 -77 -30 -102 -3 -37 41 -38 355 -2 441 17 41
63 88 91 94 12 2 30 6 41 8 11 3 26 5 33 6 9 1 12 -42 12 -186z"/>
<path d="M5732 3445 c-133 -37 -221 -117 -275 -250 -16 -40 -16 -39 -16 98
l-1 137 -360 0 -360 0 0 -25 c0 -25 1 -25 85 -25 l85 0 -2 -657 -3 -658 -82
-3 c-81 -3 -83 -3 -83 -27 l0 -25 425 0 425 0 0 25 c0 24 -2 25 -66 25 l-65 0
4 468 c4 505 7 533 62 642 50 98 112 150 180 150 50 0 74 -15 93 -58 15 -33
17 -102 20 -619 l3 -583 -60 0 c-58 0 -61 -1 -61 -25 l0 -25 420 0 420 0 0 25
c0 25 -1 25 -85 25 l-85 0 0 508 c0 417 -3 518 -15 571 -33 138 -121 249 -233
292 -74 29 -288 37 -370 14z"/>
<path d="M8920 3445 c-332 -67 -523 -275 -561 -612 -27 -242 35 -488 161 -635
129 -150 362 -228 645 -215 155 7 248 28 363 83 245 118 357 359 339 732 -7
140 -25 224 -69 321 -80 180 -234 290 -462 330 -81 15 -336 12 -416 -4z m266
-51 c24 -11 41 -31 58 -68 46 -94 51 -158 51 -621 -1 -464 -7 -533 -56 -612
-39 -62 -118 -80 -195 -42 -55 26 -88 92 -104 204 -18 126 -8 924 12 992 21
70 54 126 86 146 34 21 104 22 148 1z"/>
<path d="M3752 3408 c3 -22 8 -23 91 -26 l87 -3 0 -659 0 -660 -85 0 c-84 0
-85 0 -85 -25 l0 -25 445 0 445 0 0 25 c0 25 -1 25 -80 25 l-80 0 0 685 0 685
-371 0 -370 0 3 -22z"/>
<path d="M9860 3405 c0 -24 2 -25 68 -25 l68 0 220 -682 220 -683 201 -3 201
-2 16 47 c8 27 70 228 137 448 67 220 125 404 128 408 4 4 15 -21 25 -55 9
-35 67 -240 128 -456 l111 -392 206 2 205 3 162 620 c90 341 170 648 179 682
l17 62 61 3 c56 3 62 5 65 26 l3 22 -206 0 -206 0 3 -22 c3 -22 8 -23 106 -26
76 -2 103 -6 100 -15 -3 -7 -63 -231 -133 -499 -71 -268 -131 -485 -134 -482
-3 3 -64 226 -137 497 l-131 492 61 5 c54 4 61 8 64 28 l3 22 -391 0 -391 0 3
-22 c3 -20 10 -23 59 -26 l56 -3 36 -155 37 -156 -107 -349 c-59 -192 -110
-345 -114 -341 -5 6 -256 926 -267 979 -4 21 -1 22 84 25 84 3 89 4 92 26 l3
22 -455 0 -456 0 0 -25z"/>
<path d="M2420 1840 c-24 -24 -26 -77 -4 -108 11 -17 25 -22 57 -22 48 0 59 6
76 37 16 32 14 57 -10 87 -26 33 -88 37 -119 6z"/>
<path d="M4170 1587 c-36 -13 -78 -32 -93 -42 -25 -16 -26 -20 -14 -39 8 -11
19 -31 26 -43 l12 -23 50 26 c62 31 137 41 179 24 33 -14 60 -55 60 -92 0 -21
-7 -25 -74 -35 -92 -15 -178 -45 -221 -77 -103 -79 -80 -260 38 -305 52 -20
135 -13 191 15 28 14 59 32 68 41 15 14 17 12 20 -19 3 -33 3 -33 62 -36 l58
-3 -4 228 c-5 240 -10 270 -56 332 -54 72 -177 92 -302 48z m188 -470 c-85
-72 -198 -50 -198 38 0 14 5 35 10 46 15 26 81 58 154 73 l61 13 3 -71 c3 -70
3 -72 -30 -99z"/>
<path d="M6224 1575 c-37 -19 -68 -35 -70 -35 -1 0 -4 12 -6 28 -3 26 -5 27
-58 27 l-55 0 0 -430 0 -430 68 -3 69 -3 -4 146 c-1 80 -2 145 0 145 1 0 25
-12 52 -26 69 -36 167 -32 229 9 90 60 134 162 133 307 -2 245 -164 366 -358
265z m160 -98 c41 -27 60 -83 61 -177 0 -69 -4 -94 -23 -132 -42 -85 -126
-111 -207 -65 l-40 23 -3 151 -3 152 34 25 c18 14 44 30 57 35 32 14 94 7 124
-12z"/>
<path d="M8190 1599 c-49 -13 -150 -61 -150 -70 0 -6 30 -63 45 -87 1 -1 26
10 56 25 74 37 154 43 191 14 27 -22 54 -90 40 -101 -4 -4 -39 -12 -79 -18
-128 -21 -224 -68 -255 -125 -47 -89 -17 -205 65 -249 65 -35 200 -15 259 39
21 19 38 9 38 -23 0 -23 3 -24 56 -24 l55 0 -3 238 c-3 226 -4 239 -27 285
-35 72 -83 100 -179 103 -42 2 -93 -1 -112 -7z m188 -395 l-3 -68 -48 -30
c-86 -53 -168 -36 -183 39 -7 36 21 77 68 101 39 20 150 44 161 34 4 -4 7 -38
5 -76z"/>
<path d="M10265 1598 c-16 -6 -51 -26 -77 -44 l-48 -34 -6 40 -7 40 -53 0 -54
0 0 -310 0 -310 65 0 65 0 0 218 0 217 33 26 c52 42 75 50 124 47 37 -2 50 -9
67 -31 20 -27 21 -43 24 -253 l3 -224 65 0 64 0 0 228 c0 133 -5 244 -11 267
-15 54 -54 104 -95 121 -39 16 -116 17 -159 2z"/>
<path d="M2417 1594 c-4 -4 -7 -165 -7 -358 0 -262 -3 -357 -13 -376 -10 -21
-21 -25 -63 -28 l-51 -3 -11 -47 c-6 -26 -8 -49 -5 -52 2 -3 42 -5 88 -5 100
0 127 15 165 91 l25 49 0 365 0 365 -60 3 c-34 2 -64 0 -68 -4z"/>
</g>
</svg>
